<svg width="535" height="115" viewBox="0 0 535 115" fill="none" xmlns="http://www.w3.org/2000/svg">
<path fill-rule="evenodd" clip-rule="evenodd" d="M52.5393 19.3283C47.1205 21.7833 39.2998 21.7833 33.8811 19.3283C29.4784 17.3336 24.5537 17.1486 20.0097 19.2388C10.4204 23.6496 6.11943 36.5395 10.2931 48.1673C10.294 48.1699 10.294 48.1727 10.2929 48.1753V48.1753L11.5954 51.1701C15.9981 61.2937 19.3167 71.9061 21.4894 82.8095L23.5562 93.1816C24.2714 96.1633 26.7989 98.25 29.6952 98.25C32.8058 98.25 35.4562 95.8508 35.9501 92.588L38.8638 73.3367C39.2069 71.0694 41.0487 69.4021 43.2103 69.4021C45.3719 69.4021 47.2137 71.0694 47.5568 73.3367L50.4705 92.588C50.9643 95.8508 53.6147 98.25 56.7254 98.25C59.6216 98.25 62.1491 96.1633 62.8644 93.1816L64.9312 82.8095C67.1038 71.9061 70.4224 61.2937 74.8251 51.1701L76.1276 48.1753V48.1753C76.1266 48.1727 76.1265 48.1699 76.1274 48.1673C80.3011 36.5395 76.0001 23.6496 66.4108 19.2388C61.8668 17.1486 56.9421 17.3336 52.5393 19.3283Z" fill="url(#paint0_linear_1_6)"/>
<path d="M101.162 92V18.012H150.24V32.322H117.274V47.48H145.364V61.684H117.274V92H101.162ZM170.164 30.414C166.984 30.414 164.652 29.7073 163.168 28.294C161.755 26.81 161.048 24.9373 161.048 22.676V20.344C161.048 18.0827 161.755 16.2453 163.168 14.832C164.652 13.348 166.984 12.606 170.164 12.606C173.344 12.606 175.641 13.348 177.054 14.832C178.538 16.2453 179.28 18.0827 179.28 20.344V22.676C179.28 24.9373 178.538 26.81 177.054 28.294C175.641 29.7073 173.344 30.414 170.164 30.414ZM162.32 36.35H178.008V92H162.32V36.35ZM208.232 92C202.861 92 198.904 90.6927 196.36 88.078C193.887 85.4633 192.65 81.6827 192.65 76.736V13.56H208.338V79.81H215.334V92H208.232ZM239.494 92C234.123 92 230.166 90.6927 227.622 88.078C225.148 85.4633 223.912 81.6827 223.912 76.736V13.56H239.6V79.81H246.596V92H239.494ZM263.846 30.414C260.666 30.414 258.334 29.7073 256.85 28.294C255.436 26.81 254.73 24.9373 254.73 22.676V20.344C254.73 18.0827 255.436 16.2453 256.85 14.832C258.334 13.348 260.666 12.606 263.846 12.606C267.026 12.606 269.322 13.348 270.736 14.832C272.22 16.2453 272.962 18.0827 272.962 20.344V22.676C272.962 24.9373 272.22 26.81 270.736 28.294C269.322 29.7073 267.026 30.414 263.846 30.414ZM256.002 36.35H271.69V92H256.002V36.35ZM286.332 92V36.35H302.02V45.784H302.656C303.645 42.8867 305.376 40.378 307.85 38.258C310.323 36.138 313.75 35.078 318.132 35.078C323.856 35.078 328.166 36.986 331.064 40.802C334.032 44.618 335.516 50.0593 335.516 57.126V92H319.828V58.398C319.828 54.794 319.262 52.144 318.132 50.448C317.001 48.6813 314.987 47.798 312.09 47.798C310.818 47.798 309.581 47.9747 308.38 48.328C307.178 48.6107 306.083 49.1053 305.094 49.812C304.175 50.5187 303.433 51.402 302.868 52.462C302.302 53.4513 302.02 54.6173 302.02 55.96V92H286.332ZM400.992 96.028C400.992 98.996 400.462 101.611 399.402 103.872C398.413 106.133 396.752 108.041 394.42 109.596C392.088 111.221 388.979 112.423 385.092 113.2C381.276 114.048 376.541 114.472 370.888 114.472C366.083 114.472 361.984 114.154 358.592 113.518C355.271 112.953 352.55 112.105 350.43 110.974C348.381 109.914 346.861 108.571 345.872 106.946C344.953 105.391 344.494 103.589 344.494 101.54C344.494 98.4307 345.413 95.9927 347.25 94.226C349.087 92.4593 351.631 91.364 354.882 90.94V89.774C352.197 89.2793 350.183 88.1487 348.84 86.382C347.497 84.5447 346.826 82.4247 346.826 80.022C346.826 78.538 347.109 77.266 347.674 76.206C348.31 75.0753 349.087 74.1213 350.006 73.344C350.995 72.496 352.126 71.8247 353.398 71.33C354.67 70.8353 355.942 70.4467 357.214 70.164V69.74C353.822 68.1853 351.313 66.0653 349.688 63.38C348.063 60.624 347.25 57.444 347.25 53.84C347.25 48.1867 349.193 43.664 353.08 40.272C357.037 36.8093 363.044 35.078 371.1 35.078C374.775 35.078 377.919 35.4313 380.534 36.138V34.018C380.534 31.05 381.241 28.93 382.654 27.658C384.138 26.3153 386.223 25.644 388.908 25.644H397.706V37.304H385.41V37.94C388.661 39.4947 391.063 41.65 392.618 44.406C394.173 47.0913 394.95 50.236 394.95 53.84C394.95 59.4227 392.971 63.91 389.014 67.302C385.127 70.6233 379.156 72.284 371.1 72.284C367.496 72.284 364.21 71.8953 361.242 71.118C359.617 72.178 358.804 73.662 358.804 75.57C358.804 76.9127 359.299 77.9727 360.288 78.75C361.348 79.4567 363.079 79.81 365.482 79.81H381.594C388.378 79.81 393.289 81.2233 396.328 84.05C399.437 86.8767 400.992 90.8693 400.992 96.028ZM386.258 98.148C386.258 96.5227 385.622 95.286 384.35 94.438C383.078 93.59 380.852 93.166 377.672 93.166H358.592C357.885 93.8727 357.355 94.65 357.002 95.498C356.719 96.4167 356.578 97.3 356.578 98.148C356.578 100.197 357.461 101.681 359.228 102.6C360.995 103.589 363.998 104.084 368.238 104.084H374.598C378.838 104.084 381.841 103.589 383.608 102.6C385.375 101.681 386.258 100.197 386.258 98.148ZM371.1 62.002C374.209 62.002 376.506 61.366 377.99 60.094C379.545 58.7513 380.322 56.8433 380.322 54.37V53.098C380.322 50.6247 379.545 48.752 377.99 47.48C376.506 46.1373 374.209 45.466 371.1 45.466C367.991 45.466 365.659 46.1373 364.104 47.48C362.62 48.752 361.878 50.6247 361.878 53.098V54.37C361.878 56.8433 362.62 58.7513 364.104 60.094C365.659 61.366 367.991 62.002 371.1 62.002ZM430.999 92V79.174H440.539V30.838H430.999V18.012H466.191V30.838H456.651V79.174H466.191V92H430.999ZM478.767 92V36.35H494.455V45.784H495.091C496.08 42.8867 497.812 40.378 500.285 38.258C502.758 36.138 506.186 35.078 510.567 35.078C516.291 35.078 520.602 36.986 523.499 40.802C526.467 44.618 527.951 50.0593 527.951 57.126V92H512.263V58.398C512.263 54.794 511.698 52.144 510.567 50.448C509.436 48.6813 507.422 47.798 504.525 47.798C503.253 47.798 502.016 47.9747 500.815 48.328C499.614 48.6107 498.518 49.1053 497.529 49.812C496.61 50.5187 495.868 51.402 495.303 52.462C494.738 53.4513 494.455 54.6173 494.455 55.96V92H478.767Z" fill="#2D3748"/>
<defs>
<linearGradient id="paint0_linear_1_6" x1="17.8353" y1="17.75" x2="63.0616" y2="92.8554" gradientUnits="userSpaceOnUse">
<stop stop-color="#F0F6F9"/>
<stop offset="1" stop-color="#CDDFF2"/>
</linearGradient>
</defs>
</svg>
