<svg width="208" height="49" viewBox="0 0 208 49" fill="none" xmlns="http://www.w3.org/2000/svg">
<path fill-rule="evenodd" clip-rule="evenodd" d="M20.5326 8.51888C18.4149 9.49801 15.3585 9.498 13.2409 8.51887C11.5203 7.72334 9.59568 7.64957 7.81987 8.48318C4.07233 10.2423 2.39149 15.3832 4.02257 20.0207C4.02293 20.0218 4.02291 20.0229 4.02252 20.0239V20.0239L4.53152 21.2183C6.25212 25.2559 7.54904 29.4884 8.39813 33.837L9.20584 37.9737C9.48536 39.1629 10.4731 39.9952 11.605 39.9952C12.8206 39.9952 13.8564 39.0383 14.0494 37.737L15.1881 30.059C15.3222 29.1547 16.042 28.4898 16.8868 28.4898C17.7315 28.4898 18.4513 29.1547 18.5854 30.059L19.7241 37.737C19.9171 39.0383 20.9529 39.9952 22.1685 39.9952C23.3004 39.9952 24.2882 39.1629 24.5677 37.9737L25.3754 33.8371C26.2245 29.4884 27.5214 25.2559 29.242 21.2183L29.751 20.0239V20.0239C29.7506 20.0229 29.7506 20.0218 29.7509 20.0207C31.382 15.3832 29.7012 10.2423 25.9536 8.48318C24.1778 7.64956 22.2532 7.72334 20.5326 8.51888Z" fill="url(#paint0_linear_1_6)"/>
<path d="M44.08 40V12.08H62.6V17.48H50.16V23.2H60.76V28.56H50.16V40H44.08ZM70.1184 16.76C68.9184 16.76 68.0384 16.4933 67.4784 15.96C66.9451 15.4 66.6784 14.6933 66.6784 13.84V12.96C66.6784 12.1067 66.9451 11.4133 67.4784 10.88C68.0384 10.32 68.9184 10.04 70.1184 10.04C71.3184 10.04 72.1851 10.32 72.7184 10.88C73.2784 11.4133 73.5584 12.1067 73.5584 12.96V13.84C73.5584 14.6933 73.2784 15.4 72.7184 15.96C72.1851 16.4933 71.3184 16.76 70.1184 16.76ZM67.1584 19H73.0784V40H67.1584V19ZM84.4838 40C82.4571 40 80.9638 39.5067 80.0038 38.52C79.0704 37.5333 78.6038 36.1067 78.6038 34.24V10.4H84.5238V35.4H87.1638V40H84.4838ZM96.2806 40C94.254 40 92.7606 39.5067 91.8006 38.52C90.8673 37.5333 90.4006 36.1067 90.4006 34.24V10.4H96.3206V35.4H98.9606V40H96.2806ZM105.47 16.76C104.27 16.76 103.39 16.4933 102.83 15.96C102.297 15.4 102.03 14.6933 102.03 13.84V12.96C102.03 12.1067 102.297 11.4133 102.83 10.88C103.39 10.32 104.27 10.04 105.47 10.04C106.67 10.04 107.537 10.32 108.07 10.88C108.63 11.4133 108.91 12.1067 108.91 12.96V13.84C108.91 14.6933 108.63 15.4 108.07 15.96C107.537 16.4933 106.67 16.76 105.47 16.76ZM102.51 19H108.43V40H102.51V19ZM113.955 40V19H119.875V22.56H120.115C120.489 21.4667 121.142 20.52 122.075 19.72C123.009 18.92 124.302 18.52 125.955 18.52C128.115 18.52 129.742 19.24 130.835 20.68C131.955 22.12 132.515 24.1733 132.515 26.84V40H126.595V27.32C126.595 25.96 126.382 24.96 125.955 24.32C125.529 23.6533 124.769 23.32 123.675 23.32C123.195 23.32 122.729 23.3867 122.275 23.52C121.822 23.6267 121.409 23.8133 121.035 24.08C120.689 24.3467 120.409 24.68 120.195 25.08C119.982 25.4533 119.875 25.8933 119.875 26.4V40H113.955ZM157.223 41.52C157.223 42.64 157.023 43.6267 156.623 44.48C156.25 45.3333 155.623 46.0533 154.743 46.64C153.863 47.2533 152.69 47.7067 151.223 48C149.783 48.32 147.997 48.48 145.863 48.48C144.05 48.48 142.503 48.36 141.223 48.12C139.97 47.9067 138.943 47.5867 138.143 47.16C137.37 46.76 136.797 46.2533 136.423 45.64C136.077 45.0533 135.903 44.3733 135.903 43.6C135.903 42.4267 136.25 41.5067 136.943 40.84C137.637 40.1733 138.597 39.76 139.823 39.6V39.16C138.81 38.9733 138.05 38.5467 137.543 37.88C137.037 37.1867 136.783 36.3867 136.783 35.48C136.783 34.92 136.89 34.44 137.103 34.04C137.343 33.6133 137.637 33.2533 137.983 32.96C138.357 32.64 138.783 32.3867 139.263 32.2C139.743 32.0133 140.223 31.8667 140.703 31.76V31.6C139.423 31.0133 138.477 30.2133 137.863 29.2C137.25 28.16 136.943 26.96 136.943 25.6C136.943 23.4667 137.677 21.76 139.143 20.48C140.637 19.1733 142.903 18.52 145.943 18.52C147.33 18.52 148.517 18.6533 149.503 18.92V18.12C149.503 17 149.77 16.2 150.303 15.72C150.863 15.2133 151.65 14.96 152.663 14.96H155.983V19.36H151.343V19.6C152.57 20.1867 153.477 21 154.063 22.04C154.65 23.0533 154.943 24.24 154.943 25.6C154.943 27.7067 154.197 29.4 152.703 30.68C151.237 31.9333 148.983 32.56 145.943 32.56C144.583 32.56 143.343 32.4133 142.223 32.12C141.61 32.52 141.303 33.08 141.303 33.8C141.303 34.3067 141.49 34.7067 141.863 35C142.263 35.2667 142.917 35.4 143.823 35.4H149.903C152.463 35.4 154.317 35.9333 155.463 37C156.637 38.0667 157.223 39.5733 157.223 41.52ZM151.663 42.32C151.663 41.7067 151.423 41.24 150.943 40.92C150.463 40.6 149.623 40.44 148.423 40.44H141.223C140.957 40.7067 140.757 41 140.623 41.32C140.517 41.6667 140.463 42 140.463 42.32C140.463 43.0933 140.797 43.6533 141.463 44C142.13 44.3733 143.263 44.56 144.863 44.56H147.263C148.863 44.56 149.997 44.3733 150.663 44C151.33 43.6533 151.663 43.0933 151.663 42.32ZM145.943 28.68C147.117 28.68 147.983 28.44 148.543 27.96C149.13 27.4533 149.423 26.7333 149.423 25.8V25.32C149.423 24.3867 149.13 23.68 148.543 23.2C147.983 22.6933 147.117 22.44 145.943 22.44C144.77 22.44 143.89 22.6933 143.303 23.2C142.743 23.68 142.463 24.3867 142.463 25.32V25.8C142.463 26.7333 142.743 27.4533 143.303 27.96C143.89 28.44 144.77 28.68 145.943 28.68ZM168.547 40V35.16H172.147V16.92H168.547V12.08H181.827V16.92H178.227V35.16H181.827V40H168.547ZM186.573 40V19H192.493V22.56H192.733C193.106 21.4667 193.759 20.52 194.693 19.72C195.626 18.92 196.919 18.52 198.573 18.52C200.733 18.52 202.359 19.24 203.453 20.68C204.573 22.12 205.133 24.1733 205.133 26.84V40H199.213V27.32C199.213 25.96 198.999 24.96 198.573 24.32C198.146 23.6533 197.386 23.32 196.293 23.32C195.813 23.32 195.346 23.3867 194.893 23.52C194.439 23.6267 194.026 23.8133 193.653 24.08C193.306 24.3467 193.026 24.68 192.813 25.08C192.599 25.4533 192.493 25.8933 192.493 26.4V40H186.573Z" fill="#2D3748"/>
<defs>
<linearGradient id="paint0_linear_1_6" x1="6.97009" y1="7.8894" x2="25.177" y2="37.5165" gradientUnits="userSpaceOnUse">
<stop stop-color="#F0F6F9"/>
<stop offset="1" stop-color="#CDDFF2"/>
</linearGradient>
</defs>
</svg>
